<svg xmlns="http://www.w3.org/2000/svg" viewBox="0 0 1000 560"><defs><marker id="r" markerWidth="8" markerHeight="8" refX="7" refY="4" orient="auto"><path d="M0 0L8 4L0 8" fill="none" stroke="#a85b43"/></marker><marker id="b" markerWidth="8" markerHeight="8" refX="7" refY="4" orient="auto"><path d="M0 0L8 4L0 8" fill="none" stroke="#315ea8"/></marker><marker id="p" markerWidth="8" markerHeight="8" refX="7" refY="4" orient="auto"><path d="M0 0L8 4L0 8" fill="none" stroke="#7252a3"/></marker></defs><rect width="1000" height="560" fill="white"/><text x="52" y="58" font-family="Arial" font-size="27" font-weight="600" fill="#1f2937">Shortest distance between skew lines</text><text x="52" y="90" font-family="Arial" font-size="17" fill="#6b7280">The common perpendicular is parallel to b × d.</text><polygon points="120,420 610,260 880,350 390,510" fill="#f4f7fb" stroke="#aab8c9" stroke-width="1.2"/><line x1="110" y1="430" x2="760" y2="205" stroke="#a85b43" stroke-width="2.2" marker-end="url(#r)"/><line x1="250" y1="190" x2="900" y2="400" stroke="#315ea8" stroke-width="2.2" marker-end="url(#b)"/><text x="720" y="190" font-family="Arial" font-size="19" fill="#a85b43">L₁, direction b</text><text x="760" y="430" font-family="Arial" font-size="19" fill="#315ea8">L₂, direction d</text><circle cx="480" cy="302" r="6" fill="#a85b43"/><circle cx="585" cy="300" r="6" fill="#315ea8"/><line x1="480" y1="302" x2="585" y2="300" stroke="#7252a3" stroke-width="2.4" marker-end="url(#p)"/><text x="500" y="280" font-family="Georgia" font-size="23" font-style="italic" fill="#60458d">PQ ∥ b × d</text><rect x="125" y="455" width="610" height="65" rx="10" fill="#fafafa" stroke="#d1d5db"/><text x="150" y="497" font-family="Georgia" font-size="21" font-style="italic">D = |(c − a) · (b × d)| / |b × d|</text><text x="760" y="495" font-family="Arial" font-size="18" fill="#6b7280">normal projection</text></svg>
